<?xml version="1.0" encoding="UTF-8"?>
<svg id="Layer_2" data-name="Layer 2"
  xmlns="http://www.w3.org/2000/svg"
  xmlns:xlink="http://www.w3.org/1999/xlink" viewBox="0 0 381.98 102.3">
  <defs>
    <style>
      .cls-1 {
        clip-path: url(#clippath);
      }

      .cls-2 {
        fill: url(#linear-gradient);
      }

      .cls-2, .cls-3, .cls-4, .cls-5, .cls-6, .cls-7, .cls-8, .cls-9 {
        stroke-width: 0px;
      }

      .cls-10 {
        clip-path: url(#clippath-1);
      }

      .cls-11 {
        clip-path: url(#clippath-3);
      }

      .cls-12 {
        clip-path: url(#clippath-2);
      }

      .cls-3 {
        clip-rule: evenodd;
        fill: none;
      }

      .cls-4 {
        fill: #afca0b;
      }

      .cls-4, .cls-5 {
        fill-rule: evenodd;
      }

      .cls-5, .cls-9 {
        fill: #fff;
      }

      .cls-6 {
        fill: url(#linear-gradient-4);
      }

      .cls-7 {
        fill: url(#linear-gradient-2);
      }

      .cls-8 {
        fill: url(#linear-gradient-3);
      }
    </style>
    <clipPath id="clippath">
      <path class="cls-3" d="m55.01,28.26c2.15,7.77-6.04,10.51-13.69,14.8C22.88,53.68,12.31,66.44,0,82.99c3.04-19.27,5.46-36.35,14.6-53.3,5.98-12.26,7.78-17.59-.94-28.19C12.43.34,10.61-.14,9.05.42c.04-.02.08-.03.12-.05,1.73-.67,3.79-.41,5.49.64l34.9,21.01c3.15,1.9,4.44,2.6,5.45,6.23"/>
    </clipPath>
    <linearGradient id="linear-gradient" x1="2447.76" y1="1361.47" x2="2448.92" y2="1361.47" gradientTransform="translate(231497.7 130521.42) rotate(180) scale(94.54 95.84)" gradientUnits="userSpaceOnUse">
      <stop offset="0" stop-color="#004388"/>
      <stop offset=".21" stop-color="#004388"/>
      <stop offset=".42" stop-color="#0bbbef"/>
      <stop offset=".61" stop-color="#0bbbef"/>
      <stop offset="1" stop-color="#004388"/>
    </linearGradient>
    <clipPath id="clippath-1">
      <path class="cls-3" d="m7.04,1.65C-.19,7.12,2.74,16.06,4.77,25.9c2.79,14.72-.41,29.36-2.59,43.5l.02-.06c2.4-13.89,5.7-26.76,12.63-39.6,4.08-7.93,5.92-13.01,4.64-18.3-.8-3.31-4.96-12.96-10.42-11.02-.73.3-1.4.78-2.01,1.24"/>
    </clipPath>
    <linearGradient id="linear-gradient-2" x1="2428.08" y1="1259.41" x2="2429.43" y2="1259.41" gradientTransform="translate(-136167.8 -44078.93) scale(56.07 35.03)" gradientUnits="userSpaceOnUse">
      <stop offset="0" stop-color="#004388"/>
      <stop offset=".28" stop-color="#004388"/>
      <stop offset=".76" stop-color="#00b1eb"/>
      <stop offset="1" stop-color="#00b1eb"/>
    </linearGradient>
    <clipPath id="clippath-2">
      <path class="cls-3" d="m17.62,98.92c-8.48,5.24-19.38,3.61-14.38-4.3,7.26-11.51,31.13-23.92,43.83-26.31-8.36,4.32-13.02,8.28-17.89,16.45-3.31,5.56-6.46,11-11.56,14.15"/>
    </clipPath>
    <linearGradient id="linear-gradient-3" x1="2388.99" y1="1293.01" x2="2390.29" y2="1293.01" gradientTransform="translate(-116140.1 -53637.24) scale(48.61 41.55)" gradientUnits="userSpaceOnUse">
      <stop offset="0" stop-color="#c8d400"/>
      <stop offset=".33" stop-color="#c8d400"/>
      <stop offset=".6" stop-color="#5d9021"/>
      <stop offset="1" stop-color="#5d9021"/>
    </linearGradient>
    <clipPath id="clippath-3">
      <path class="cls-3" d="m62.39,29.78c3.26,4.9,1.97,7.72-.93,10.44-4.23,3.97-9.46,5.89-14.56,8.78-16.68,9.45-29.59,22.17-40.97,37.11-2.11,2.77-4.18,5.65-4.69,9.19-.25,1.73,0,3.22.79,4.25.1.13.34.46.5.48-.84-1.22-.76-3.01.73-5.36.21-.34.43-.67.67-1,6.38-8.98,22.33-18.27,34.79-22.86.88-.34,1.76-.65,2.64-.94,2.17-.71,4.36-1.28,6.58-1.68.9-.16,1.82-.31,2.77-.42,1.72-.21,3.52-.38,5.38-.53,10-.81,21.33-1.09,27.62-5.19,6.19-4.03,8.27-12.27-.07-19.38l-21.24-12.87Z"/>
    </clipPath>
    <linearGradient id="linear-gradient-4" x1="2447.25" y1="1358.4" x2="2448.6" y2="1358.4" gradientTransform="translate(279596.67 133703.04) rotate(-180) scale(114.2 98.38)" gradientUnits="userSpaceOnUse">
      <stop offset="0" stop-color="#397c23"/>
      <stop offset=".23" stop-color="#5d9021"/>
      <stop offset=".48" stop-color="#dedc00"/>
      <stop offset=".83" stop-color="#5d9021"/>
      <stop offset="1" stop-color="#5d9021"/>
    </linearGradient>
  </defs>
  <g id="Layer_1-2" data-name="Layer 1">
    <g>
      <g class="cls-1">
        <rect class="cls-2" x="-19.47" y="-9.09" width="96.1" height="100.87" transform="translate(-19.29 26.02) rotate(-37.59)"/>
      </g>
      <g class="cls-10">
        <rect class="cls-7" x="-26.65" y="12.31" width="73.86" height="43.26" transform="translate(-25.15 32.39) rotate(-70.65)"/>
      </g>
      <path class="cls-4" d="m17.62,98.92c-8.48,5.24-19.38,3.61-14.38-4.3,7.26-11.51,31.13-23.92,43.83-26.31-8.36,4.32-13.02,8.28-17.89,16.45-3.31,5.56-6.46,11-11.56,14.15"/>
      <g class="cls-12">
        <rect class="cls-8" x="-7.2" y="59.28" width="59.72" height="53.93" transform="translate(-36.26 19.31) rotate(-26.63)"/>
      </g>
      <g class="cls-11">
        <rect class="cls-6" x="-10.45" y="11.84" width="113.84" height="106.12" transform="translate(-26.07 31.6) rotate(-29.74)"/>
      </g>
      <path class="cls-9" d="m336.51,95.49c0-1.17.35-2.27,1.06-3.31.71-1.04,1.84-1.87,3.4-2.52,1.56-.64,3.5-.96,5.83-.96s4.27.32,5.83.96c1.56.64,2.69,1.48,3.4,2.52.71,1.03,1.06,2.14,1.06,3.31s-.35,2.28-1.06,3.31c-.71,1.04-1.84,1.87-3.4,2.52-1.56.65-3.5.97-5.83.97s-4.27-.32-5.83-.97c-1.56-.65-2.69-1.48-3.4-2.52-.71-1.04-1.06-2.14-1.06-3.31m17.84,0c0-1.1-.33-2.03-.99-2.81-.66-.77-1.56-1.35-2.69-1.74-1.14-.39-2.42-.58-3.87-.58s-2.73.19-3.87.58c-1.14.39-2.03.97-2.69,1.74-.66.77-.99,1.71-.99,2.81,0,.82.19,1.55.56,2.2.38.65.92,1.19,1.62,1.63.7.44,1.5.77,2.4.98.9.21,1.89.32,2.97.32s2.08-.11,2.99-.32c.9-.21,1.7-.54,2.39-.97.69-.43,1.22-.97,1.6-1.61.38-.64.57-1.39.57-2.23Zm-23.3-2.44c-.34-.68-.94-1.27-1.82-1.75-1.13-.62-2.65-.93-4.57-.93-1.17,0-2.22.11-3.14.34-.92.22-1.69.56-2.33,1-.64.44-1.13.99-1.48,1.66-.35.67-.52,1.44-.52,2.3,0,1.38.6,2.55,1.81,3.51,1.21.96,3.04,1.44,5.51,1.44,1.17,0,2.2-.12,3.12-.38.92-.25,1.68-.65,2.31-1.18.38-.32.69-.7.94-1.13h3.01c-.26.61-.67,1.19-1.23,1.73-.84.81-1.97,1.45-3.37,1.92-1.41.47-3.01.71-4.8.71-2.78,0-5.17-.56-7.16-1.68-2-1.12-3-2.84-3-5.16,0-1.28.39-2.43,1.17-3.45.78-1.02,1.94-1.83,3.46-2.42,1.53-.59,3.36-.89,5.5-.89,1.44,0,2.88.16,4.31.47,1.43.31,2.65.84,3.65,1.59.82.61,1.36,1.38,1.61,2.3h-2.97Zm-34.12,8.84v-12.79h14.88v1.65h-12.13v3.71h11.78v1.65h-11.78v4.14h12.4v1.65h-15.14Zm-17.16,0v-12.79h2.75v11.14h11.25v1.65h-14Zm-18.09,0v-12.79h14.88v1.65h-12.13v3.71h11.78v1.65h-11.78v4.14h12.4v1.65h-15.14Zm-12.71,0v-11.14h-7v-1.65h16.75v1.65h-7v11.14h-2.75Zm121.78-2.18l7.42-10.61h3.81v12.79h-2.75v-10.61h-.05l-7.2,10.61h-2.45l-7.17-10.39h-.05v10.39h-2.75v-12.79h3.86l7.33,10.61Z"/>
      <path class="cls-5" d="m158.94,76.55l-3.95-10.47h-22.27l-3.95,10.47h-14.18l21.31-51.03h15.91l21.31,51.03h-14.18Zm17.85,0V25.53h13.16v41.45h29.55v9.57h-42.71Zm120.84-25.49c0,2.85.54,5.58,1.64,8.17,1.1,2.6,2.86,4.74,5.3,6.39,2.44,1.67,5.52,2.5,9.23,2.5,2.83,0,5.29-.49,7.37-1.47,2.09-.98,3.78-2.3,5.08-3.97,1.29-1.66,2.23-3.5,2.81-5.51.59-2,.88-4.04.88-6.12s-.29-4.18-.88-6.17c-.58-2-1.52-3.82-2.81-5.47-1.3-1.65-2.98-2.95-5.05-3.92-2.06-.97-4.53-1.46-7.4-1.46-3.71,0-6.79.83-9.23,2.5-2.43,1.66-4.2,3.79-5.3,6.37-1.1,2.59-1.64,5.31-1.64,8.16Zm-14,0c0-3.08.4-6.12,1.19-9.11.8-2.99,2.27-5.84,4.44-8.51,2.15-2.68,5.23-4.85,9.25-6.51,4.01-1.67,9.11-2.5,15.3-2.5s11.3.83,15.31,2.5c4.03,1.66,7.12,3.83,9.27,6.51,2.16,2.67,3.62,5.52,4.39,8.51.78,3,1.17,6.03,1.17,9.11s-.38,6.1-1.17,9.09c-.77,2.99-2.22,5.82-4.36,8.5-2.13,2.68-5.24,4.87-9.31,6.55-4.07,1.69-9.18,2.53-15.3,2.53-8,0-14.25-1.39-18.75-4.15-4.49-2.77-7.53-6.14-9.08-10.12-1.56-3.98-2.34-8.11-2.34-12.39Zm-50.09,0c0,2.85.54,5.58,1.64,8.17,1.1,2.6,2.86,4.74,5.3,6.39,2.44,1.67,5.52,2.5,9.24,2.5,2.83,0,5.28-.49,7.37-1.47,2.09-.98,3.78-2.3,5.08-3.97,1.29-1.66,2.23-3.5,2.81-5.51.59-2,.88-4.04.88-6.12s-.29-4.18-.88-6.17c-.58-2-1.52-3.82-2.81-5.47-1.3-1.65-2.98-2.95-5.05-3.92-2.06-.97-4.53-1.46-7.4-1.46-3.71,0-6.79.83-9.24,2.5-2.43,1.66-4.2,3.79-5.3,6.37-1.1,2.59-1.64,5.31-1.64,8.16Zm-14,0c0-3.08.4-6.12,1.19-9.11.8-2.99,2.27-5.84,4.44-8.51,2.15-2.68,5.23-4.85,9.25-6.51,4.01-1.67,9.11-2.5,15.3-2.5s11.3.83,15.31,2.5c4.03,1.66,7.12,3.83,9.27,6.51,2.16,2.67,3.62,5.52,4.39,8.51.78,3,1.17,6.03,1.17,9.11s-.38,6.1-1.17,9.09c-.77,2.99-2.22,5.82-4.36,8.5-2.13,2.68-5.24,4.87-9.31,6.55-4.07,1.69-9.18,2.53-15.3,2.53-8,0-14.25-1.39-18.75-4.15-4.49-2.77-7.53-6.14-9.08-10.12-1.56-3.98-2.34-8.11-2.34-12.39Zm-68.09,5.69l-7.59-20.25-7.59,20.25h15.19Z"/>
    </g>
  </g>
</svg>