<svg width="48" height="48" viewBox="0 0 48 48" fill="none" xmlns="http://www.w3.org/2000/svg">
<g clip-path="url(#clip0_59_1445)">
<path d="M24 15C18.0909 15 13.0445 18.732 11 24C13.0445 29.268 18.0909 33 24 33C29.9091 33 34.9555 29.268 37 24C34.9555 18.732 29.9091 15 24 15ZM24 30C20.7382 30 18.0909 27.312 18.0909 24C18.0909 20.688 20.7382 18 24 18C27.2618 18 29.9091 20.688 29.9091 24C29.9091 27.312 27.2618 30 24 30ZM24 20.4C22.0382 20.4 20.4545 22.008 20.4545 24C20.4545 25.992 22.0382 27.6 24 27.6C25.9618 27.6 27.5455 25.992 27.5455 24C27.5455 22.008 25.9618 20.4 24 20.4Z" fill="#010306"/>
</g>
<defs>
<clipPath id="clip0_59_1445">
<rect width="38" height="38" fill="white" transform="translate(5 5)"/>
</clipPath>
</defs>
</svg>
