<svg width="48" height="48" viewBox="0 0 48 48" fill="none" xmlns="http://www.w3.org/2000/svg">
<path d="M12.5765 14.1994C12.154 13.8791 11.5405 13.9533 11.2074 14.3596C10.8743 14.7658 10.9515 15.3557 11.374 15.676L35.4235 33.8006C35.846 34.1209 36.4595 34.0467 36.7926 33.6404C37.1257 33.2342 37.0485 32.6443 36.626 32.324L32.3524 29.1054C33.9611 27.5195 35.0498 25.7421 35.5982 24.4805C35.7323 24.1719 35.7323 23.8281 35.5982 23.5195C34.9929 22.125 33.7214 20.0938 31.8202 18.3986C29.9108 16.6877 27.2824 15.2502 24 15.2502C21.2294 15.2502 18.922 16.2775 17.1223 17.6251L12.5765 14.1994ZM20.0635 19.8399C21.0994 18.9298 22.4847 18.3751 24 18.3751C27.2296 18.3751 29.8499 20.8946 29.8499 24C29.8499 24.9726 29.594 25.8867 29.143 26.6835L27.5749 25.5039C27.7862 25.0429 27.8999 24.5351 27.8999 24C27.8999 21.9297 26.1531 20.2501 24 20.2501C23.8863 20.2501 23.7725 20.254 23.6588 20.2657C23.8741 20.629 24 21.0508 24 21.5001C24 21.8985 23.9025 22.2735 23.7319 22.6055L20.0635 19.8399ZM29.1268 31.4803L26.1531 29.2304C25.4868 29.4843 24.7597 29.6249 24 29.6249C20.7704 29.6249 18.1501 27.1054 18.1501 24C18.1501 23.7305 18.1704 23.4688 18.207 23.211L14.3761 20.3087C13.4499 21.4688 12.7877 22.625 12.4018 23.5195C12.2677 23.8281 12.2677 24.1719 12.4018 24.4805C13.0071 25.875 14.2786 27.9062 16.1798 29.6014C18.0892 31.3123 20.7176 32.7498 24 32.7498C25.9418 32.7498 27.6521 32.2459 29.1268 31.4803Z" fill="#010306"/>
</svg>
